<svg xmlns="http://www.w3.org/2000/svg" viewBox="0 0 500 362.73"><defs><style>.cls-1{fill:#c08d45;}</style></defs><title>Fichier 2</title><g id="Calque_2" data-name="Calque 2"><g id="Calque_1-2" data-name="Calque 1"><path class="cls-1" d="M220.63,5.85a1.77,1.77,0,0,1-1.49-1.37,3.93,3.93,0,0,1-.08-.82,4.2,4.2,0,0,1,.21-1.07,1.74,1.74,0,0,1,1.53-1.24c.86-.08,1.71-.15,2.57-.15,38.75,0,77.5-.13,116.24.17,11.49.09,22.91,1.86,34.34,3.38a228.18,228.18,0,0,1,23.68,4.42c17.66,4.28,34.9,10,49.8,20.67,11,7.86,20.8,17.21,26.55,29.93,3.81,8.42,6.37,17.14,6.31,26.49,0,3.95.13,7.9-.08,11.84a55.45,55.45,0,0,1-10.35,29.53c-4.54,6.5-9.58,12.36-16,17a104,104,0,0,1-19,10.92,149.13,149.13,0,0,1-21.29,7.73c-9.4,2.52-19.16,3.82-28.77,5.36a120.88,120.88,0,0,1-12.33.91c-.74,0-1.4.56-3.51,1.52,5.94,1.27,10.48,2,15.09,2.61,10.32,1.45,20.74,2.77,30.75,5.49,4.79,1.3,9.91,1.71,14.51,4.14s9.75,3.78,14.45,6c12,5.76,23.31,12.66,32.56,22.41,3.9,4.11,7.89,8.25,11,12.92,6,8.88,10.36,18.42,11.59,29.39A127.6,127.6,0,0,1,500,273a72.72,72.72,0,0,1-8.1,30.63c-10.13,20-26.85,32.06-47,39.87-5.34,2.07-10.47,4.83-16.17,6.13s-11.22,3.42-16.94,4.64c-6.56,1.41-13.24,2.37-19.9,3.27-10.11,1.36-20.24,2.62-30.39,3.69a113.31,113.31,0,0,1-11.81.27q-62.39,0-124.78,0c-1.31,0-2.62-.09-4.12-.17a1.64,1.64,0,0,1-1.54-1.53l-.08-1.42a1.63,1.63,0,0,1,1.17-1.65,5,5,0,0,1,1.34-.26c6.6-.18,13-1.21,19-4.23a15.62,15.62,0,0,0,8.55-10.2,66.12,66.12,0,0,0,2.57-16c.2-55.45.16-110.91.16-166.36q0-60.5-.1-121a64.87,64.87,0,0,0-1.57-14.92c-2.25-9.23-6.82-13.9-16.7-16.06C229.47,6.79,225.27,6.44,220.63,5.85Zm70.57,173V186q0,26.63,0,53.24,0,51.92,0,103.84c0,3-.63,6.2,1.51,8.11,2.73,0,4.89,0,7.06,0,11.81,0,23.64.22,35.44-.13,10.31-.31,20.35-2.45,29.54-7.32,9.85-5.22,19-11.4,25.85-20.55,6.33-8.46,11.33-17.46,13.77-27.87,1.4-6,2-12,3-18,2.11-12.54.8-25-1.21-37.14a77.26,77.26,0,0,0-36.93-53c-11.62-6.78-24.78-9.38-38.2-9.77-10.93-.32-21.88-.16-32.82,0C296,177.42,293.73,178.31,291.2,178.88Zm0-13.27c1.75.77,2.34,1.27,2.92,1.25,12.21-.23,24.48,1.41,36.61-1.16,13.54-2.86,25.44-8.93,35-19a82.63,82.63,0,0,0,16-23.45,74.89,74.89,0,0,0,6.56-25.14c1.08-15.6-.08-30.94-7.46-45.32-4.41-8.58-9.12-16.85-16.49-23.2-13.1-11.29-27.93-18.36-45.66-18.09-6.78.1-13.57,0-20.35,0-1.92,0-3.85.21-5.82.33-.53,1.37-1.25,2.35-1.25,3.33Q291.2,90.37,291.24,165.61Z"/><path class="cls-1" d="M202.78,239.56c-8.87-8.42-17.72-16.86-26.67-25.18a76,76,0,0,0-6.5-5,1.25,1.25,0,0,1-.49-1v-1.45a1.83,1.83,0,0,1,.68-1.41,35.14,35.14,0,0,1,5.33-4.07c6.17-3.3,11.74-1.64,17,2.43,3,2.28,6,4.42,9.26,6.73a1.8,1.8,0,0,0,2.85-1.47v-7.21a1.82,1.82,0,0,0-.8-1.5c-3.21-2.17-6.12-4.33-9.26-6.09-7.45-4.18-15.36-5.15-23-1-4.94,2.67-9.29,6.44-13.92,9.69l-1.26.82a1.83,1.83,0,0,1-2.78-1.45,123.74,123.74,0,0,1-.08-14.63,8,8,0,0,1,2.15-5c1.94-2,2.61-2.36,5.88-2.84q10.94-1.62,22-2.41c6.63-.48,13.29-.57,20.54-.8a1.8,1.8,0,0,0,1.73-2l-.75-4.67a1.82,1.82,0,0,0-1.79-1.52h-6.24c-5,0-10.07,0-15.1-.14h0a1.75,1.75,0,0,1-.88-3.23c9.05-5.67,16.36-12.44,23.35-19.55a1.78,1.78,0,0,0,.51-1.3c-.13-6.84.23-13.45-.14-20.37a1.82,1.82,0,0,0-1.81-1.7h-6.71q-81.74,0-163.45,0c-8.4,0-15.88-1.82-20.48-9.65l-.22-.49c-1.45-4.78-1.33-9.48-.7-14.52a65.4,65.4,0,0,1,14.18-33.1c5.51-7,12.47-12.36,19.78-17.2A150.13,150.13,0,0,1,79.75,30.26c6.85-2.32,13.64-4.9,20.64-6.65,11.58-2.9,23.34-5.09,35.05-7.41,11.37-2.25,22.83-3.2,34.25-4.5,11-1.26,22.2-1.19,33.31-1.74h0a2.65,2.65,0,0,0,2.51-2.5,32.9,32.9,0,0,0,.14-4.07A3.66,3.66,0,0,0,202.16.1,105.41,105.41,0,0,0,190.9.2c-11.46,1-22.92,2.2-34.33,3.68C146,5.25,135.5,6.77,125.08,8.8c-10,1.95-19.83,4.57-29.7,7.06A184.13,184.13,0,0,0,60.57,28.51c-6.23,3-12.3,6.35-18.31,9.78a85.65,85.65,0,0,0-33.6,34l.05,0C3.59,81,1.82,90.63.69,100.6c-1.39,12.33,4.8,24.34,16.84,28.21a7.23,7.23,0,0,1,2.17,1.4,1.85,1.85,0,0,1,.42,2.37c-5.72,10-6.51,20.12-.92,30.48a1.86,1.86,0,0,1-.39,2.26A34.27,34.27,0,0,0,8.22,185.39l0,.36C8,198.09,11.58,207.2,19.77,212.62a7.85,7.85,0,0,1,3.21,4.2l4.11,13.49a2.89,2.89,0,0,1-1.88,3.59c-1.53.48-3.06,1-4.57,1.5A30.28,30.28,0,0,0,3.78,249c-1.24,2.17-1.21,5.09-2.48,7.24a8.45,8.45,0,0,0-1,6.83,27.85,27.85,0,0,1,.57,5.18A79.73,79.73,0,0,0,12,305.39c.37.62.75,1.24,1.15,1.85A99,99,0,0,0,22,318.47c1.74,2,3.33,4.1,5.14,6,2.19,2.33,5,4.61,8.44,4.1a4.45,4.45,0,0,0,2.16-.89,3.26,3.26,0,0,0,1.08-3.15,9.18,9.18,0,0,0-3.16-5.29,71.54,71.54,0,0,1-10.47-11.38,79.11,79.11,0,0,1-11.69-23.33c-2.21-7-2.8-14.18-3.11-21.24-.53-11.93,9.23-21.24,21.6-21.51s24.49-.08,36.74-.05a6.76,6.76,0,0,1,1.53.23,1.84,1.84,0,0,1,1.41,1.57c.15,1.37.31,2.66.33,3.95.06,5,0,10.07,0,15.11.08,10.18,5,17.86,12.85,23.74,5.77,4.32,12.47,5.22,19.66,5.59,13,.66,31.65-14,30.25-30.59a56,56,0,0,1,0-7.88,12,12,0,0,1,.49-2.56,1.93,1.93,0,0,1,1.06-1.21l17.19-7.8a2,2,0,0,1,.84-.19c9.21,0,20.41.13,31.6-.07a12.78,12.78,0,0,1,9.94,4c1.8,1.84,3.68,3.6,5.69,5.5a1.82,1.82,0,0,0,3-1.06l.92-6.57a1.78,1.78,0,0,0-.43-1.43C204.25,241.13,203.56,240.3,202.78,239.56ZM19.75,197c-3.52-8.86-1.56-17.84,5.48-24.3a1.78,1.78,0,0,1,1.86-.32c3,1.23,6.14,2.48,9.26,3.8a31.2,31.2,0,0,0,12.39,2.45c10.27-.11,20.54,0,30.8-.08,4.64-.05,8.62,1.27,11.52,4.9,1.22,1.53,2.3,3.31,1.43,5.75a1.79,1.79,0,0,1-2.18,1.11c-7-2.12-13.18.23-19.16,3.86-7.22,4.4-14.57,8.57-21.82,12.92A20.42,20.42,0,0,1,19.75,197Zm53.74,34.44a1.81,1.81,0,0,1-1.55.92H45a6.87,6.87,0,0,1-4.55-1.72c-4.27-3.77-5-5.22-4.93-9.29a1.86,1.86,0,0,1,1.37-1.75,2.79,2.79,0,0,1,1-.11c8.23.95,14.59-3.18,21-7.4,5.78-3.8,11.67-7.47,17.74-10.78a14.78,14.78,0,0,1,15.3.16,1.8,1.8,0,0,1,.87,1.55v16a1.83,1.83,0,0,1-1,1.61A10.44,10.44,0,0,1,88.16,222,17.86,17.86,0,0,0,73.49,231.41Zm71.71-52.95h0A3.74,3.74,0,0,0,144,180.8a121.61,121.61,0,0,0-1.21,12.72c-.2,13.87-.07,27.74-.07,41.19a1.79,1.79,0,0,1-.18.79c-1.31,2.55-3.07,3.44-5.64,3.84-8.66,1.33-12.32,5.84-12.43,14.66q-.06,4.28,0,8.55c.18,15.48-14.83,22.21-25.68,19.7-10.26-2.37-16.18-7.43-16.56-21-.19-7-.08-14,0-21,0-3.41.06-4,1.87-6.61a5.19,5.19,0,0,1,3.78-2.22l2.5-.24a9.66,9.66,0,0,0,4.74-1.77l3.58-2.56a8.58,8.58,0,0,0,3.41-5.28c2.27-11.23,1.33-22,1-32.67-.35-11-8.73-18.72-21.66-19.21-10.49-.4-21-.11-31.51-.1a29.75,29.75,0,0,1-14.41-3.67c-11.28-6.1-13.12-22.72-5.34-29.79l.05,0a17.2,17.2,0,0,1,11.6-4.7H81.36a1.79,1.79,0,0,1,1.22.47c5.06,4.67,10.39,9.69,15.86,14.55,9.87,8.8,18.93,18.81,32.12,22.87,4.13,1.27,8.45,1.89,12.66,2.9l.39.09A3.66,3.66,0,0,1,145.2,178.46Zm-3.61-15.82a45,45,0,0,1-27-14.51c-4.32-4.81-9.57-8.78-14.36-13.17a2.2,2.2,0,0,1-.2-.23,2,2,0,0,1,.79-2.89,6,6,0,0,1,1.44-.61,13.13,13.13,0,0,1,3.26,0q45.57,0,91.12,0a16.94,16.94,0,0,1,4.47.18,1.82,1.82,0,0,1,.94,2.84c-2.92,3.85-6.65,6.78-9.92,10.1-2.56,2.6-5.52,4.81-8.28,7.21C171.55,162.13,157,165.08,141.59,162.64Zm33.9,69.88-16.58.41a6.42,6.42,0,0,1-6.58-6.69c.1-2.17.56-4.46.45-6.58-.15-3.22,3.2-4.27,6.05-6.17a1.79,1.79,0,0,1,2.21.17c5.48,5,11,10,16.37,15.13a1.5,1.5,0,0,1,.36.57A2.42,2.42,0,0,1,175.49,232.52Z"/><path class="cls-1" d="M51.33,335.61a5.53,5.53,0,0,1,1.49-1.1,5.08,5.08,0,0,1,3-.31,14.46,14.46,0,0,1,3.47,1.27l3.62,1.62c2.42,1.08,4.85,2.15,7.29,3.18l.18.07c9.67,4.07,19.87,6.26,30.1,8.31a250,250,0,0,0,29.67,4c23.77,1.86,47.56.47,71.33,1,1.08,0,2.16.12,3.19.18,1.35,3.8,1.29,3.81.31,8.63-1.57.07-3.26.22-4.94.22q-27.54,0-55.07.05c-12.64,0-25.09-1.72-37.57-3.55a181,181,0,0,1-30.38-7c-7.82-2.57-15.39-5.9-23-9a9.43,9.43,0,0,1-2.64-1.62,4.54,4.54,0,0,1-1.63-2.38,3.34,3.34,0,0,1,1-2.76Q51,336,51.33,335.61Z"/><path class="cls-1" d="M167.24,80a20.06,20.06,0,0,1,.73-2c1.24-3.1,2.76-6.4,5.86-8,2.68-1.41,6.29-1.57,8.6.65s2.52,5.72,2.36,8.73c-.19,3.4-.7,6.54-3.58,8.78a9,9,0,0,1-10.22.56c-2.18-1.34-4-3.56-4.11-6.12A8,8,0,0,1,167.24,80Zm10.24-4.79a1.69,1.69,0,0,0-.78.24A8.46,8.46,0,0,0,173,80.71c-.33,2.19,1,4.39,3.34,4.41a1.85,1.85,0,0,0,1.29-.43,2.27,2.27,0,0,0,.49-.82,15.11,15.11,0,0,0,1.37-4.82,5,5,0,0,0-.7-3,1.74,1.74,0,0,0-.78-.72A1.16,1.16,0,0,0,177.48,75.22Z"/></g></g></svg>