<svg xmlns="http://www.w3.org/2000/svg" viewBox="0 0 612.64 609.5"><defs><style>.cls-1,.cls-2,.cls-3,.cls-4{font-size:50px;}.cls-1,.cls-4,.cls-5{fill:#1d1d1b;}.cls-1,.cls-3{font-family:Rosmatika-Regular, Rosmatika;}.cls-2,.cls-3,.cls-6{fill:#c08d45;}.cls-2{font-family:P22UndergroundCYPro-Book, P22 Underground CY Pro;}.cls-4{font-family:P22UndergroundCYPro-Heavy, P22 Underground CY Pro;font-weight:800;}</style></defs><title>Fichier 5</title><g id="Calque_2" data-name="Calque 2"><g id="Calque_1-2" data-name="Calque 1"><text class="cls-1" transform="translate(16 344.39) rotate(78.07)">B</text><text class="cls-1" transform="translate(29.78 399.1) rotate(66.89)">u</text><text class="cls-1" transform="matrix(0.55, 0.83, -0.83, 0.55, 54.32, 450.55)">r</text><text class="cls-1" transform="matrix(0.69, 0.72, -0.72, 0.69, 82.86, 490.44)">g</text><text class="cls-1" transform="translate(120.72 527.37) rotate(36.45)">e</text><text class="cls-1" transform="matrix(0.9, 0.45, -0.45, 0.9, 163.43, 556.37)">r</text><text class="cls-1" transform="matrix(0.96, 0.28, -0.28, 0.96, 209.05, 576.92)">s</text><text class="cls-1" transform="translate(258.15 589.21) rotate(7.88)"> </text><text class="cls-1" transform="translate(295.1 592.87) rotate(0.93)"> </text><text class="cls-2" transform="translate(333.04 592.16) rotate(-8.56)">&amp;</text><text class="cls-1" transform="matrix(0.95, -0.31, 0.31, 0.95, 389.07, 581.18)"> </text><text class="cls-1" transform="translate(424.06 568.37) rotate(-25.25)"> </text><text class="cls-1" transform="translate(457.84 551.23) rotate(-34.51)">B</text><text class="cls-1" transform="matrix(0.7, -0.71, 0.71, 0.7, 504.3, 516.19)">e</text><text class="cls-1" transform="translate(538.82 478.49) rotate(-55.28)">e</text><text class="cls-1" transform="matrix(0.42, -0.91, 0.91, 0.42, 566.52, 434.92)">r</text><text class="cls-1" transform="matrix(0.26, -0.97, 0.97, 0.26, 585.66, 388.71)">s</text><text class="cls-3" transform="translate(103.67 139.94) rotate(-48.18)">T</text><text class="cls-3" transform="translate(137.46 104.55) rotate(-36.97)">K</text><text class="cls-3" transform="translate(179.12 75.36) rotate(-26.12)">L</text><text class="cls-3" transform="matrix(0.96, -0.27, 0.27, 0.96, 222.16, 55.96)">S</text><text class="cls-1" transform="translate(268.87 45.04) rotate(-6.55)"> </text><text class="cls-1" transform="translate(301.44 42.38) rotate(0.93)"> </text><text class="cls-4" transform="translate(333.91 43.47) rotate(9.23)">F</text><text class="cls-4" transform="translate(375.51 50.97) rotate(20.13)">O</text><text class="cls-4" transform="matrix(0.84, 0.54, -0.54, 0.84, 428.53, 72.34)">O</text><text class="cls-4" transform="matrix(0.71, 0.71, -0.71, 0.71, 475.57, 105.14)">D</text><circle class="cls-5" cx="548.25" cy="169.37" r="8.41"/><circle class="cls-5" cx="63.47" cy="169.37" r="8.41"/><path class="cls-6" d="M283.73,166.67a1.33,1.33,0,0,1-1.14-1,2.71,2.71,0,0,1-.06-.62,3.22,3.22,0,0,1,.16-.81,1.33,1.33,0,0,1,1.16-.95,18.39,18.39,0,0,1,2-.11c29.46,0,58.92-.1,88.38.13,8.74.07,17.43,1.41,26.12,2.57a171.93,171.93,0,0,1,18,3.36c13.43,3.25,26.53,7.61,37.87,15.71,8.35,6,15.81,13.09,20.18,22.76,2.9,6.41,4.85,13,4.8,20.15,0,3,.1,6-.06,9a42.23,42.23,0,0,1-7.87,22.46A52,52,0,0,1,461,272.18a79.51,79.51,0,0,1-14.47,8.3,112.23,112.23,0,0,1-16.2,5.88c-7.14,1.92-14.56,2.91-21.87,4.08-3.1.5-6.24.5-9.37.69-.57,0-1.07.43-2.68,1.15,4.52,1,8,1.5,11.48,2,7.84,1.1,15.77,2.11,23.38,4.17,3.64,1,7.53,1.3,11,3.15s7.42,2.88,11,4.59c9.13,4.38,17.71,9.63,24.75,17.05a78.16,78.16,0,0,1,8.39,9.82c4.55,6.75,7.87,14,8.81,22.35a96.26,96.26,0,0,1,.82,14.38A55.39,55.39,0,0,1,490,393.06c-7.7,15.24-20.41,24.38-35.7,30.32-4.06,1.57-8,3.67-12.3,4.66s-8.53,2.6-12.88,3.53c-5,1.07-10.07,1.8-15.14,2.48q-11.52,1.56-23.1,2.81a84,84,0,0,1-9,.2l-94.87,0c-1,0-2-.07-3.14-.14a1.23,1.23,0,0,1-1.17-1.16l-.06-1.07a1.25,1.25,0,0,1,.88-1.26,3.9,3.9,0,0,1,1-.2,33.25,33.25,0,0,0,14.42-3.22,11.87,11.87,0,0,0,6.5-7.75,50.35,50.35,0,0,0,2-12.19c.15-42.17.11-84.33.12-126.49q0-46-.08-92a48.4,48.4,0,0,0-1.2-11.34c-1.7-7-5.18-10.57-12.69-12.22C290.45,167.39,287.25,167.12,283.73,166.67Zm53.65,131.56v5.44q0,20.24,0,40.48,0,39.48,0,79c0,2.27-.48,4.71,1.15,6.16h5.36c9,0,18,.17,26.95-.1a50.62,50.62,0,0,0,22.46-5.56c7.5-4,14.46-8.67,19.66-15.63,4.81-6.43,8.61-13.27,10.47-21.19,1.06-4.54,1.5-9.14,2.26-13.7,1.61-9.54.61-19-.92-28.24a58.68,58.68,0,0,0-28.07-40.3c-8.84-5.15-18.84-7.14-29.05-7.43-8.31-.24-16.63-.12-24.95,0C341,297.12,339.31,297.81,337.38,298.23Zm0-10.08c1.33.58,1.78,1,2.23,1,9.28-.17,18.61,1.07,27.83-.88,10.3-2.18,19.34-6.79,26.61-14.46a62.71,62.71,0,0,0,12.16-17.83,56.84,56.84,0,0,0,5-19.12c.82-11.86-.06-23.52-5.67-34.45-3.35-6.53-6.94-12.82-12.54-17.64-10-8.59-21.24-14-34.72-13.76-5.15.08-10.31,0-15.47,0-1.47,0-2.93.17-4.42.26a8.54,8.54,0,0,0-1,2.53Q337.39,230.94,337.41,288.15Z"/><path class="cls-6" d="M270.15,344.38c-6.74-6.4-13.47-12.82-20.28-19.15a58.06,58.06,0,0,0-4.94-3.83.93.93,0,0,1-.37-.74v-1.11a1.38,1.38,0,0,1,.51-1.07,27.57,27.57,0,0,1,4.06-3.1c4.69-2.51,8.93-1.24,12.93,1.85,2.24,1.73,4.56,3.36,7,5.12a1.37,1.37,0,0,0,2.17-1.12v-5.48a1.38,1.38,0,0,0-.6-1.14c-2.44-1.65-4.66-3.29-7.05-4.63-5.66-3.18-11.68-3.92-17.51-.78-3.76,2-7.06,4.9-10.58,7.37-.3.21-.61.41-1,.62a1.39,1.39,0,0,1-2.11-1.1,92.29,92.29,0,0,1-.06-11.13,6,6,0,0,1,1.63-3.82c1.47-1.55,2-1.79,4.47-2.16,5.54-.82,11.13-1.43,16.72-1.83,5-.37,10.1-.43,15.61-.61a1.38,1.38,0,0,0,1.32-1.54l-.57-3.55a1.37,1.37,0,0,0-1.36-1.15h-4.75c-3.83,0-7.66,0-11.48-.1h0a1.33,1.33,0,0,1-.67-2.46,97.21,97.21,0,0,0,17.75-14.86,1.36,1.36,0,0,0,.39-1c-.1-5.2.18-10.23-.1-15.49A1.37,1.37,0,0,0,270,255.1H140.58c-6.38,0-12.07-1.38-15.57-7.34l-.16-.37a26.1,26.1,0,0,1-.54-11,49.75,49.75,0,0,1,10.79-25.17c4.19-5.31,9.48-9.39,15-13.08a114.56,114.56,0,0,1,26.47-12.87c5.2-1.76,10.37-3.73,15.69-5.06,8.81-2.2,17.74-3.86,26.65-5.63,8.64-1.71,17.36-2.43,26-3.42,8.39-1,16.88-.9,25.33-1.32h0a2,2,0,0,0,1.9-1.9,25,25,0,0,0,.11-3.1,2.79,2.79,0,0,0-2.67-2.5,78.61,78.61,0,0,0-8.56.08c-8.72.78-17.43,1.67-26.1,2.8-8,1-16,2.19-23.94,3.74-7.59,1.48-15.09,3.47-22.59,5.36A140.58,140.58,0,0,0,162,183.9c-4.74,2.27-9.35,4.83-13.92,7.44a65,65,0,0,0-25.55,25.83l0,0c-3.9,6.65-5.24,13.95-6.1,21.53-1,9.37,3.65,18.51,12.81,21.45a5.48,5.48,0,0,1,1.64,1.06,1.42,1.42,0,0,1,.33,1.8c-4.35,7.6-5,15.3-.71,23.18a1.41,1.41,0,0,1-.29,1.72,26,26,0,0,0-8.05,15.26l0,.27c-.12,9.38,2.58,16.31,8.8,20.44a5.89,5.89,0,0,1,2.45,3.19l3.12,10.25a2.19,2.19,0,0,1-1.43,2.73c-1.16.37-2.32.74-3.47,1.14a23.07,23.07,0,0,0-12.82,10.37c-1,1.66-.92,3.87-1.88,5.51a6.38,6.38,0,0,0-.75,5.19,21.5,21.5,0,0,1,.43,3.94,60.59,60.59,0,0,0,8.48,28.21c.28.48.57.94.87,1.41a74.23,74.23,0,0,0,6.67,8.54c1.32,1.51,2.53,3.11,3.9,4.57,1.67,1.78,3.82,3.51,6.42,3.12a3.44,3.44,0,0,0,1.65-.68,2.48,2.48,0,0,0,.82-2.39,7,7,0,0,0-2.41-4,54.52,54.52,0,0,1-8-8.66,59.8,59.8,0,0,1-8.88-17.74,61.38,61.38,0,0,1-2.37-16.15c-.41-9.06,7-16.15,16.42-16.35s18.63-.06,27.94,0a5.61,5.61,0,0,1,1.16.17,1.42,1.42,0,0,1,1.07,1.2,28.88,28.88,0,0,1,.25,3c.05,3.83,0,7.66,0,11.49.06,7.75,3.8,13.58,9.77,18.05,4.38,3.29,9.48,4,14.95,4.25,9.91.5,24.06-10.62,23-23.26a42.77,42.77,0,0,1,0-6,8.77,8.77,0,0,1,.38-1.94,1.44,1.44,0,0,1,.8-.92l13.07-5.94a1.57,1.57,0,0,1,.64-.14c7,0,15.52.1,24-.05a9.7,9.7,0,0,1,7.56,3.05c1.37,1.4,2.79,2.74,4.32,4.18a1.38,1.38,0,0,0,2.31-.81c.25-1.79.48-3.41.71-5a1.37,1.37,0,0,0-.34-1.09C271.27,345.57,270.74,344.94,270.15,344.38ZM131,312a16.09,16.09,0,0,1,4.17-18.48,1.32,1.32,0,0,1,1.41-.24c2.28.92,4.67,1.88,7.05,2.88A23.57,23.57,0,0,0,153,298c7.8-.08,15.61,0,23.42-.06,3.52,0,6.55,1,8.75,3.73.93,1.16,1.75,2.51,1.09,4.38a1.35,1.35,0,0,1-1.65.83c-5.36-1.6-10,.18-14.57,2.94-5.49,3.34-11.08,6.52-16.6,9.82A15.53,15.53,0,0,1,131,312Zm40.87,26.18a1.4,1.4,0,0,1-1.19.7H150.14a5.26,5.26,0,0,1-3.46-1.31c-3.24-2.87-3.8-4-3.75-7.06a1.41,1.41,0,0,1,1-1.33,2.11,2.11,0,0,1,.78-.09c6.26.73,11.1-2.41,16-5.62,4.39-2.89,8.88-5.68,13.49-8.2a11.23,11.23,0,0,1,11.63.12,1.36,1.36,0,0,1,.67,1.18v12.14a1.38,1.38,0,0,1-.75,1.22,7.94,7.94,0,0,1-2.79,1.12A13.56,13.56,0,0,0,171.85,338.18Zm54.52-40.26h0a2.9,2.9,0,0,0-.89,1.78,93.71,93.71,0,0,0-.92,9.67c-.15,10.54-.05,21.09-.05,31.32a1.36,1.36,0,0,1-.14.6,5.09,5.09,0,0,1-4.29,2.92c-6.58,1-9.37,4.44-9.45,11.15,0,2.17,0,4.33,0,6.5.14,11.77-11.28,16.89-19.53,15-7.79-1.8-12.3-5.65-12.59-16-.14-5.32-.06-10.66,0-16,0-2.59.05-3.05,1.42-5a4,4,0,0,1,2.88-1.69l1.9-.17a7.41,7.41,0,0,0,3.61-1.35l2.71-1.95a6.49,6.49,0,0,0,2.6-4c1.73-8.54,1-16.73.76-24.84-.26-8.39-6.63-14.24-16.47-14.61-8-.3-16-.08-24-.08a22.61,22.61,0,0,1-11-2.79c-8.57-4.64-10-17.27-4.05-22.65l0,0a13.13,13.13,0,0,1,8.82-3.58h30.06a1.36,1.36,0,0,1,.92.36c3.86,3.55,7.91,7.37,12.07,11.07,7.5,6.69,14.39,14.3,24.42,17.39,3.14,1,6.42,1.44,9.62,2.2l.3.07A2.79,2.79,0,0,1,226.37,297.92Zm-2.74-12a34.27,34.27,0,0,1-20.58-11c-3.28-3.66-7.27-6.68-10.91-10a.8.8,0,0,1-.15-.17,1.53,1.53,0,0,1,.6-2.2,4.8,4.8,0,0,1,1.1-.47,10.17,10.17,0,0,1,2.47,0q34.65,0,69.29,0a12.68,12.68,0,0,1,3.4.14,1.37,1.37,0,0,1,.71,2.15c-2.22,2.93-5.05,5.16-7.54,7.68-1.95,2-4.2,3.66-6.3,5.49C246.41,285.5,235.34,287.75,223.63,285.89ZM249.4,339l-12.6.31a4.88,4.88,0,0,1-5-5.08c.08-1.65.43-3.39.35-5-.12-2.45,2.43-3.25,4.59-4.69a1.37,1.37,0,0,1,1.68.12c4.17,3.82,8.35,7.62,12.46,11.51a1.32,1.32,0,0,1,.27.43A1.84,1.84,0,0,1,249.4,339Z"/><path class="cls-6" d="M155,417.41a4,4,0,0,1,1.14-.83,3.78,3.78,0,0,1,2.25-.24,11.28,11.28,0,0,1,2.64,1l2.75,1.23c1.84.83,3.68,1.64,5.54,2.42l.14.06c7.35,3.09,15.11,4.75,22.89,6.31a187.4,187.4,0,0,0,22.55,3.05c18.08,1.41,36.17.36,54.25.76.82,0,1.64.09,2.42.13,1,2.9,1,2.9.23,6.56-1.19.06-2.47.17-3.75.18l-41.87,0c-9.61,0-19.08-1.31-28.57-2.7A137.11,137.11,0,0,1,174.5,430c-5.95-2-11.7-4.48-17.49-6.86a7.39,7.39,0,0,1-2-1.23,3.55,3.55,0,0,1-1.24-1.81,2.55,2.55,0,0,1,.73-2.1C154.65,417.78,154.82,417.59,155,417.41Z"/><path class="cls-6" d="M243.13,223.06c.15-.52.35-1,.55-1.53.95-2.36,2.11-4.86,4.46-6.1,2-1.08,4.78-1.19,6.54.49s1.92,4.35,1.79,6.64c-.14,2.59-.53,5-2.72,6.68a6.88,6.88,0,0,1-7.77.42,6.07,6.07,0,0,1-3.12-4.65A5.9,5.9,0,0,1,243.13,223.06Zm7.79-3.64a1.27,1.27,0,0,0-.6.18,6.43,6.43,0,0,0-2.85,4,2.72,2.72,0,0,0,2.54,3.35,1.33,1.33,0,0,0,1-.32,1.71,1.71,0,0,0,.37-.62,11.6,11.6,0,0,0,1-3.67,4,4,0,0,0-.54-2.31,1.34,1.34,0,0,0-.59-.54A.76.76,0,0,0,250.92,219.42Z"/></g></g></svg>